<?xml version="1.0" encoding="utf-8"?>
<!-- Generator: Adobe Illustrator 25.3.1, SVG Export Plug-In . SVG Version: 6.00 Build 0)  -->
<svg version="1.1" id="Layer_1" xmlns="http://www.w3.org/2000/svg" xmlns:xlink="http://www.w3.org/1999/xlink" x="0px" y="0px"
	 viewBox="0 0 104 22.44" style="enable-background:new 0 0 104 22.44;" xml:space="preserve">
<style type="text/css">
	.st0{clip-path:url(#SVGID_2_);fill:#008A6C;}
</style>
<g>
	<defs>
		<rect id="SVGID_1_" x="1.5" y="1.21" width="101.54" height="20.17"/>
	</defs>
	<clipPath id="SVGID_2_">
		<use xlink:href="#SVGID_1_"  style="overflow:visible;"/>
	</clipPath>
	<path class="st0" d="M85.09,5.71v0.89l1.39,0.15v8.92l-1.39,0.15v0.89h4.94v-0.89l-1.44-0.15V9.8c0-1.75,1.08-2.86,2.63-2.86
		c1.24,0,1.79,0.55,1.79,2.15v6.58l-1.39,0.15v0.89h4.89v-0.89l-1.42-0.15V9.85c0-1.55,0.93-2.9,2.61-2.9c1.24,0,1.84,0.46,1.84,2.3
		v6.42l-1.39,0.15v0.89h4.89v-0.89l-1.42-0.15V9.23c0-2.59-0.89-3.76-3.14-3.76c-1.82,0-2.97,1.06-3.54,2.13
		c-0.33-1.44-1.24-2.13-2.88-2.13c-1.97,0-3.08,1-3.67,2.1l-0.15-1.86H85.09z M76.7,10.02c0.13-1.93,0.97-3.54,2.63-3.54
		c1.44,0,2.08,1.04,2.08,3.06v0.49H76.7z M74.42,11.35c0,3.36,1.55,5.6,4.83,5.6c2.24,0,3.59-1.17,4.16-2.9l-0.97-0.33
		c-0.53,1.28-1.31,1.9-2.77,1.9c-2.19,0-2.97-1.7-2.97-4.43h6.8c0.02-0.31,0.04-0.64,0.04-0.93c0-3.3-1.57-4.8-4.14-4.8
		C76.54,5.46,74.42,7.59,74.42,11.35 M67.71,14.34c0,1.84,0.97,2.61,2.55,2.61c1.84,0,2.72-0.91,3.14-2.79l-0.84-0.22
		c-0.35,1.35-0.84,1.75-1.64,1.75c-0.84,0-1.13-0.49-1.13-1.7V6.79h2.39V5.71h-2.39v-3.3h-0.53l-1.55,0.44v2.86h-1.62v1.08h1.62
		V14.34z M57.02,16.95h0.75c0.07-0.75,0.18-0.91,0.35-0.91c0.35,0,1.06,0.91,3.06,0.91c2.41,0,3.63-1.64,3.63-3.65
		c0-4.65-6.02-2.41-6.02-5.2c0-0.97,0.84-1.59,1.95-1.59c1.42,0,2.26,0.77,2.68,2.41h0.86V5.46h-0.71c-0.04,0.4-0.11,0.64-0.38,0.64
		c-0.4,0-0.86-0.64-2.44-0.64c-2.04,0-3.54,1.44-3.54,3.34c0,4.41,6,1.97,6,5.16c0,1.24-0.77,1.88-2.13,1.88
		c-1.53,0-3.05-0.91-3.19-2.86h-0.89V16.95z M45.66,6.59l0.95,0.09l3.81,10.25c-0.93,2.92-1.22,3.5-2.1,3.5
		c-0.55,0-0.91-0.2-0.82-0.75l0.82-0.46c-0.02-1-0.53-1.44-1.24-1.44c-0.93,0-1.42,0.71-1.42,1.53c0,1.42,1.17,2.08,2.44,2.08
		c2.1,0,2.52-1.42,3.39-3.87l3.79-10.83l1.08-0.09V5.71h-3.83v0.89l1.46,0.09l-2.5,7.5l-2.52-7.5l1.48-0.09V5.71h-4.78V6.59z
		 M37,16.95h0.75c0.07-0.75,0.18-0.91,0.35-0.91c0.35,0,1.06,0.91,3.05,0.91c2.41,0,3.63-1.64,3.63-3.65c0-4.65-6.02-2.41-6.02-5.2
		c0-0.97,0.84-1.59,1.95-1.59c1.42,0,2.26,0.77,2.68,2.41h0.86V5.46h-0.71c-0.04,0.4-0.11,0.64-0.38,0.64
		c-0.4,0-0.86-0.64-2.44-0.64c-2.04,0-3.54,1.44-3.54,3.34c0,4.41,6,1.97,6,5.16c0,1.24-0.78,1.88-2.13,1.88
		c-1.53,0-3.05-0.91-3.19-2.86H37V16.95z M25.23,11.26c0,3.39,1.64,5.69,4.89,5.69c3.17,0,5-2.3,5-5.78c0-3.39-1.55-5.71-4.87-5.71
		C27.15,5.46,25.23,7.79,25.23,11.26 M32.84,11.26c0,2.46-0.51,4.63-2.63,4.63c-2.21,0-2.7-2.3-2.7-4.78c0-2.41,0.46-4.58,2.63-4.58
		C32.38,6.53,32.84,8.85,32.84,11.26 M19.96,5.46c-3.1,0-5.25,2.06-5.25,6.07c0,3.36,1.68,5.42,4.83,5.42c2.72,0,3.79-1.93,4.1-2.94
		l-0.97-0.33c-0.35,0.91-1.11,1.97-2.66,1.97c-2.21,0-3.01-1.7-3.01-4.56c0-2.94,1.02-4.58,3.06-4.58c1.06,0,1.66,0.29,1.66,1.02
		c0,0.15-0.02,0.31-0.07,0.49h-0.73c-0.16,0.33-0.2,0.73-0.2,0.97c0,0.8,0.62,1.28,1.37,1.28c0.84,0,1.55-0.51,1.55-1.82
		C23.63,6.66,22.11,5.46,19.96,5.46 M1.5,1.21v0.86l1.68,0.18v13.42L1.5,15.85v0.86h11.16l0.18-4.96h-0.82
		c-0.49,3.01-1.39,3.94-4.67,3.94H5.48V9.38h0.89c1.95,0,2.35,0.49,2.68,2.81h0.73V5.64H9.09c-0.33,1.95-0.8,2.63-2.52,2.63H5.48
		V2.19h1.88c2.68,0,3.52,0.49,4.07,3.19h0.82L12.1,1.21H1.5z"/>
</g>
</svg>
